<svg width="20" height="20" viewBox="0 0 20 20" fill="none" xmlns="http://www.w3.org/2000/svg">
  <rect opacity="0.01" width="20" height="20" fill="#26878D" />
  <path fill-rule="evenodd" clip-rule="evenodd"
    d="M7.53262 0.196777C3.47105 0.196777 0.180684 1.82955 0.180684 3.84299C0.180684 5.85646 3.47105 7.4891 7.53264 7.4891C11.5922 7.4891 14.8827 5.85646 14.8827 3.84299C14.8827 1.82955 11.5922 0.196777 7.53262 0.196777ZM7.81539 13.6488C7.81539 10.3526 10.4865 7.67955 13.7846 7.67955C17.0807 7.67955 19.7538 10.3526 19.7538 13.6488C19.7538 16.9449 17.0807 19.618 13.7846 19.618C10.4884 19.618 7.81539 16.9449 7.81539 13.6488ZM14.3596 17.4835C16.1019 17.3585 16.423 16.0949 16.5115 15.5161V15.5161C16.6154 14.8488 16.5096 14.2045 15.9962 13.7047C15.7039 13.4181 15.4154 13.2469 15.0039 13.072C14.8638 13.0122 14.6533 12.964 14.4161 12.9096C13.6987 12.7453 12.7365 12.5248 12.7365 11.7604C12.7673 11.1699 13.6673 11.168 14.0961 11.168C14.7576 11.168 15.3116 11.3585 15.852 11.5623L16.1923 10.2008C15.6538 9.96609 15.1 9.81613 14.402 9.80656V8.7084H13.173V9.85846C12.1154 9.94498 11.0538 10.5834 11.1077 12.045C11.0869 13.176 12.3273 13.7271 13.3797 14.1946C14.1793 14.5498 14.8704 14.8569 14.8173 15.3334C14.7615 15.9643 14.1769 16.143 13.3076 16.0412C12.6673 15.968 11.9403 15.7373 11.3884 15.5219L11.0191 16.9662C11.7173 17.1988 12.3941 17.3892 13.1288 17.493V18.5911H14.3596V17.4835ZM8.24037 6.18531C10.3846 6.10842 10.7808 5.33719 10.8904 4.98336C11.0173 4.57564 10.8865 4.1815 10.2557 3.87564C9.89414 3.70072 9.54027 3.59684 9.03258 3.48916C8.8601 3.45293 8.60164 3.42367 8.31041 3.3907C7.42635 3.29061 6.24027 3.15633 6.24027 2.6891C6.27877 2.32758 7.38654 2.32758 7.91537 2.32758C8.73268 2.32758 9.41338 2.44299 10.0788 2.56797L10.498 1.73525C9.83463 1.59102 9.15383 1.50057 8.2942 1.49486V0.823652H6.78072V1.52564C5.47877 1.57947 4.17299 1.9699 4.23844 2.86215C4.21333 3.55258 5.7396 3.88867 7.03495 4.17391C8.01993 4.3908 8.8714 4.5783 8.80576 4.86982C8.73844 5.25445 8.01732 5.36414 6.94805 5.3025C6.15957 5.25832 5.26344 5.11605 4.58457 4.98523L4.13072 5.86801C4.98842 6.01221 5.82303 6.12752 6.72689 6.19102V6.86225H8.24037V6.18531ZM9.84988 8.42566C9.12113 8.54682 8.34422 8.61414 7.5326 8.61414C4.03451 8.61414 1.11338 7.40066 0.369121 5.77758C0.249902 6.03723 0.180684 6.3083 0.180684 6.58723C0.180684 8.60074 3.47105 10.2334 7.53264 10.2334C7.72872 10.2334 7.91918 10.2258 8.11149 10.2182H8.11151H8.11152H8.11154H8.11156H8.11158L8.11727 10.218C8.57084 9.51204 9.1597 8.90289 9.84988 8.42566ZM14.8827 6.58531C14.8827 6.87377 14.8077 7.15258 14.6807 7.41988H14.6807C14.2845 7.34301 13.875 7.29879 13.4557 7.29879C13.3802 7.29879 13.3057 7.30368 13.2314 7.30855C13.2017 7.3105 13.172 7.31245 13.1422 7.31408C13.8865 6.87764 14.4308 6.35252 14.6943 5.77561C14.8134 6.03723 14.8827 6.30641 14.8827 6.58531ZM7.53262 11.0123C4.03453 11.0123 1.1134 9.79879 0.369141 8.17572C0.249883 8.43525 0.180664 8.70645 0.180664 8.98533C0.180664 10.9411 3.29027 12.5333 7.19035 12.6238C7.28085 12.0662 7.44642 11.5235 7.68254 11.0103C7.65762 11.0103 7.63267 11.0108 7.60771 11.0113H7.60767L7.60757 11.0113C7.58259 11.0118 7.55761 11.0123 7.53262 11.0123ZM0.36916 10.5737C1.08262 12.1333 3.80375 13.3103 7.11529 13.4026H7.11531C7.11377 13.4359 7.1116 13.4689 7.10944 13.5018L7.10944 13.5019C7.10623 13.5507 7.10303 13.5994 7.10189 13.6488C7.10189 14.1199 7.15758 14.5795 7.25568 15.0218C3.32494 14.9507 0.180684 13.3506 0.180684 11.3833C0.180684 11.1046 0.249902 10.8334 0.36916 10.5737ZM0.36916 12.9738C0.249902 13.2334 0.180684 13.5046 0.180684 13.7834C0.180684 15.7969 3.47105 17.4295 7.53264 17.4295C7.80572 17.4295 8.07492 17.4199 8.34035 17.4065C7.98459 16.9219 7.69998 16.3853 7.49225 15.8103C4.01145 15.8007 1.10957 14.5911 0.36916 12.9738ZM7.53264 18.2103C8.02879 18.2103 8.51148 18.1833 8.97879 18.1372C9.51721 18.6757 10.1499 19.1161 10.8557 19.4333C9.85572 19.6853 8.72885 19.8295 7.53264 19.8295C3.47105 19.8295 0.180684 18.1969 0.180684 16.1834C0.180684 15.9046 0.249902 15.6334 0.36916 15.3737C1.11342 16.9969 4.03455 18.2103 7.53264 18.2103Z"
    fill="#26878D" />
</svg>