<svg width="20" height="20" viewBox="0 0 20 20" fill="none" xmlns="http://www.w3.org/2000/svg">
  <rect opacity="0.01" width="20" height="20" fill="#797979" />
  <path fill-rule="evenodd" clip-rule="evenodd"
    d="M7.54853 7.94962C9.87058 8.27325 11.7981 6.05662 11.4862 3.4676C11.2871 1.67213 10.0021 0.253493 8.43151 0.0318304C6.10946 -0.291797 4.15939 1.89823 4.47125 4.51385C4.69293 6.30488 5.95541 7.72352 7.54853 7.94962ZM12.8201 11.7221V18.3055L14.3794 18.3365L14.3982 19.9236H0.443369C0.19914 19.9236 0 19.7019 0 19.4271V14.4973C0 11.4827 5.24528 9.96207 7.85664 9.96207C9.29196 9.96207 11.5276 10.4231 13.2447 11.3364L12.8201 11.7221ZM17.1336 11.8771L19.7111 14.6346C20.1019 15.0514 20.0944 15.7429 19.6998 16.1641L19.681 16.1818C19.2903 16.5986 18.6553 16.6163 18.257 16.1907L17.4604 15.3351L17.4341 18.9216C17.4266 19.5112 16.9795 19.99 16.4272 19.9989C16.2168 20.0122 15.9725 19.9058 15.8636 19.826C15.7546 19.7462 15.6644 19.6486 15.593 19.5334C15.4841 19.356 15.424 19.1521 15.4315 18.9305L15.4578 15.2686L14.6048 16.1818C14.2141 16.5986 13.5791 16.6163 13.1883 16.1996L13.1432 16.1508C12.7525 15.7341 12.7637 15.0425 13.162 14.6169L15.7283 11.8683C16.1078 11.4604 16.7428 11.4604 17.1336 11.8771Z"
    fill="#797979" />
</svg>