<svg width="20" height="20" viewBox="0 0 20 20" fill="none" xmlns="http://www.w3.org/2000/svg">
  <path fill-rule="evenodd" clip-rule="evenodd"
    d="M9.06295 12.9901C9.10218 12.9109 9.13486 12.7987 9.16101 12.6535C9.13486 12.5215 9.11852 12.4158 9.11198 12.3366C9.10544 12.2574 9.08583 12.1947 9.05315 12.1485C9.02046 12.1023 8.97797 12.0528 8.92567 12C8.87337 11.9472 8.80146 11.8812 8.70994 11.802C8.60535 11.7228 8.5171 11.6007 8.44519 11.4356C8.37328 11.2706 8.31117 11.1089 8.25887 10.9505C8.20658 10.7657 8.15428 10.5677 8.10198 10.3564C8.02353 10.33 7.94509 10.2772 7.86664 10.198C7.80127 10.132 7.72936 10.0396 7.65091 9.92079C7.57246 9.80198 7.50056 9.63036 7.43518 9.40594C7.36981 9.19472 7.34366 9 7.35674 8.82178C7.36981 8.64356 7.4025 8.48845 7.45479 8.35644C7.50709 8.21122 7.58554 8.07921 7.69014 7.9604C7.69014 7.49835 7.72282 7.0363 7.78819 6.57426C7.85357 6.19142 7.95162 5.77558 8.08237 5.32673C8.21311 4.87789 8.40923 4.46865 8.67072 4.09901C8.87991 3.80858 9.12506 3.52145 9.40616 3.23762C9.68726 2.9538 9.95202 2.73927 10.2004 2.59406C10.122 2.34323 10.0599 2.12211 10.0141 1.93069C9.96836 1.73927 9.8605 1.53135 9.69053 1.30693C9.42904 0.990099 9.03681 0.693069 8.51383 0.415842C7.99085 0.138614 7.4025 0 6.74877 0C6.48728 0 6.21926 0.019802 5.94469 0.0594059C5.67013 0.0990099 5.39884 0.174917 5.13081 0.287129C4.86278 0.39934 4.59803 0.554455 4.33654 0.752475C4.07505 0.950495 3.83971 1.20792 3.63052 1.52475C3.39518 1.85479 3.21867 2.22442 3.101 2.63366C2.98333 3.0429 2.89835 3.42574 2.84605 3.78218C2.79375 4.21782 2.77414 4.64686 2.78721 5.06931C2.69569 5.16172 2.62378 5.28053 2.57148 5.42574C2.51919 5.54455 2.4865 5.68647 2.47343 5.85149C2.46035 6.0165 2.4865 6.19142 2.55187 6.37624C2.61725 6.56106 2.68589 6.70627 2.7578 6.81188C2.8297 6.91749 2.89835 6.9967 2.96372 7.0495C3.04217 7.10231 3.12061 7.14191 3.19906 7.16832C3.25136 7.36634 3.30365 7.54455 3.35595 7.70297C3.40825 7.84819 3.47035 7.9934 3.54226 8.13861C3.61417 8.28383 3.70243 8.38944 3.80702 8.45545C3.99006 8.61386 4.15676 8.76898 4.30712 8.92079C4.45748 9.07261 4.54573 9.28053 4.57188 9.54455C4.58495 9.71617 4.59149 9.87459 4.59149 10.0198C4.59149 10.165 4.56534 10.3069 4.51304 10.4455C4.46074 10.5842 4.37249 10.7195 4.24828 10.8515C4.12408 10.9835 3.9443 11.1287 3.70896 11.2871C3.40825 11.4719 3.06505 11.6172 2.67935 11.7228C2.29365 11.8284 1.91776 11.9439 1.55168 12.0693C1.18559 12.1947 0.868536 12.3663 0.60051 12.5842C0.332483 12.802 0.165784 13.1155 0.100412 13.5248C-0.00418383 14.264 -0.0270641 14.8647 0.0317709 15.3267C0.090606 15.7888 0.178859 16.066 0.296529 16.1584C0.374976 16.2244 0.564555 16.2904 0.865268 16.3564C1.16598 16.4224 1.53533 16.4884 1.97333 16.5545C2.41132 16.6205 2.89181 16.6799 3.41479 16.7327C3.93777 16.7855 4.45421 16.8317 4.96411 16.8713C4.97719 16.8449 4.99026 16.8218 5.00333 16.802C5.01641 16.7822 5.02948 16.7591 5.04256 16.7327C5.05563 16.6139 5.06544 16.4851 5.07197 16.3465C5.07851 16.2079 5.09486 16.066 5.121 15.9208C5.18638 15.4455 5.35308 15.0792 5.6211 14.8218C5.88913 14.5644 6.20292 14.3564 6.56246 14.198C6.92201 14.0396 7.2979 13.8944 7.69014 13.7624C8.08237 13.6304 8.44845 13.4587 8.78839 13.2475C8.93221 13.1551 9.02373 13.0693 9.06295 12.9901ZM19.7415 16.9703C19.7088 16.7063 19.6663 16.4818 19.614 16.297C19.5094 16.0066 19.3362 15.769 19.0943 15.5842C18.8525 15.3993 18.5779 15.2475 18.2706 15.1287C17.9634 15.0099 17.6431 14.9076 17.3097 14.8218C16.9763 14.736 16.6723 14.6337 16.3977 14.5149C16.0839 14.396 15.8388 14.2574 15.6623 14.099C15.4858 13.9406 15.3583 13.7756 15.2799 13.604C15.2014 13.4323 15.1589 13.2574 15.1524 13.0792C15.1458 12.901 15.1557 12.7261 15.1818 12.5545C15.2079 12.4224 15.2439 12.3102 15.2897 12.2178C15.3354 12.1254 15.391 12.0429 15.4564 11.9703C15.5217 11.8977 15.5969 11.8284 15.6819 11.7624C15.7669 11.6964 15.8617 11.6172 15.9663 11.5248C16.0578 11.4587 16.1428 11.3531 16.2212 11.2079C16.2997 11.0627 16.365 10.9175 16.4173 10.7723C16.4696 10.6139 16.5219 10.4356 16.5742 10.2376C16.6919 10.2112 16.7965 10.1518 16.888 10.0594C16.9665 9.9802 17.0449 9.86799 17.1234 9.72277C17.2018 9.57756 17.2541 9.38614 17.2803 9.14851C17.3064 8.9637 17.3031 8.80858 17.2704 8.68317C17.2378 8.55776 17.2018 8.45545 17.1626 8.37624C17.1103 8.28383 17.0514 8.21122 16.9861 8.15842C16.9992 7.70957 16.973 7.26073 16.9076 6.81188C16.8423 6.42904 16.7409 6.0165 16.6036 5.57426C16.4664 5.13201 16.2539 4.73267 15.9663 4.37624C15.7179 4.05941 15.3322 3.76238 14.8092 3.48515C14.2862 3.20792 13.6913 3.06931 13.0245 3.06931C12.7761 3.06931 12.5146 3.08911 12.24 3.12871C11.9655 3.16832 11.6909 3.24422 11.4164 3.35644C11.1418 3.46865 10.8738 3.62376 10.6123 3.82178C10.3508 4.0198 10.1154 4.27723 9.90626 4.59406C9.67092 4.93729 9.49768 5.31023 9.38655 5.71287C9.27541 6.11551 9.1937 6.50165 9.1414 6.87129C9.0891 7.30693 9.06949 7.73597 9.08257 8.15842C8.99104 8.26403 8.91914 8.38284 8.86684 8.51485C8.81454 8.62046 8.78185 8.75578 8.76878 8.92079C8.7557 9.08581 8.78185 9.26073 8.84723 9.44554C8.9126 9.63036 8.98124 9.77558 9.05315 9.88119C9.12506 9.9868 9.1937 10.066 9.25907 10.1188C9.33752 10.1716 9.41596 10.2112 9.49441 10.2376C9.54671 10.4356 9.59901 10.6139 9.6513 10.7723C9.7036 10.9175 9.76571 11.0627 9.83762 11.2079C9.90952 11.3531 9.99124 11.4653 10.0828 11.5446C10.2658 11.6898 10.4358 11.8383 10.5927 11.9901C10.7496 12.1419 10.8411 12.3498 10.8672 12.6139C10.8803 12.7987 10.8868 12.9637 10.8868 13.1089C10.8868 13.2541 10.8574 13.3927 10.7986 13.5248C10.7398 13.6568 10.6482 13.7888 10.524 13.9208C10.3998 14.0528 10.22 14.198 9.9847 14.3564C9.68399 14.5545 9.34079 14.703 8.95509 14.802C8.56939 14.901 8.1935 15.0165 7.82742 15.1485C7.46133 15.2805 7.14428 15.4521 6.87625 15.6634C6.60822 15.8746 6.44152 16.1914 6.37615 16.6139C6.27156 17.3399 6.25195 17.934 6.31732 18.396C6.38269 18.8581 6.46767 19.1353 6.57227 19.2277C6.63764 19.2805 6.7978 19.3366 7.05276 19.396C7.30771 19.4554 7.62149 19.5149 7.99412 19.5743C8.36674 19.6337 8.77532 19.6865 9.21985 19.7327C9.66438 19.7789 10.1154 19.8218 10.5731 19.8614C11.0307 19.901 11.4719 19.934 11.8968 19.9604C12.3218 19.9868 12.6977 20 13.0245 20C13.3514 20 13.7305 19.9868 14.162 19.9604C14.5934 19.934 15.0413 19.901 15.5054 19.8614C15.9695 19.8218 16.4304 19.7723 16.888 19.7129C17.3456 19.6535 17.764 19.5908 18.1432 19.5248C18.5223 19.4587 18.8394 19.3861 19.0943 19.3069C19.3493 19.2277 19.5029 19.1485 19.5552 19.0693C19.6337 18.9505 19.6925 18.7723 19.7317 18.5347C19.7709 18.297 19.7905 18.0429 19.7905 17.7723C19.7905 17.5016 19.7742 17.2343 19.7415 16.9703Z"
    fill="#797979" />
</svg>