<svg width="10" height="10" viewBox="0 0 10 10" fill="none" xmlns="http://www.w3.org/2000/svg">
  <rect opacity="0.01" width="10" height="10" fill="black" />
  <path fill-rule="evenodd" clip-rule="evenodd"
    d="M5.02005 0.529785C5.64005 0.529785 6.22172 0.648118 6.76505 0.884785C7.30838 1.12145 7.78338 1.44145 8.19005 1.84479C8.59671 2.24812 8.91672 2.72145 9.15005 3.26479C9.38338 3.80812 9.50005 4.38979 9.50005 5.00979C9.50005 5.62979 9.38338 6.20978 9.15005 6.74978C8.91672 7.28978 8.59671 7.76312 8.19005 8.16979C7.78338 8.57645 7.30838 8.89645 6.76505 9.12979C6.22172 9.36312 5.64005 9.47978 5.02005 9.47978C4.40005 9.47978 3.82005 9.36312 3.28005 9.12979C2.74005 8.89645 2.26672 8.57645 1.86005 8.16979C1.45338 7.76312 1.13338 7.28978 0.900049 6.74978C0.666715 6.20978 0.550049 5.62979 0.550049 5.00979C0.550049 4.38979 0.666715 3.80812 0.900049 3.26479C1.13338 2.72145 1.45338 2.24812 1.86005 1.84479C2.26672 1.44145 2.74005 1.12145 3.28005 0.884785C3.82005 0.648118 4.40005 0.529785 5.02005 0.529785ZM5.03005 8.06979C5.20338 8.06979 5.34838 8.01145 5.46505 7.89478C5.58172 7.77812 5.64005 7.63645 5.64005 7.46979C5.64005 7.29645 5.58172 7.15145 5.46505 7.03479C5.34838 6.91812 5.20338 6.85979 5.03005 6.85979C4.85672 6.85979 4.71172 6.91812 4.59505 7.03479C4.47838 7.15145 4.42005 7.29645 4.42005 7.46979C4.42005 7.63645 4.47838 7.77812 4.59505 7.89478C4.71172 8.01145 4.85672 8.06979 5.03005 8.06979ZM5.74005 5.26979C5.60005 5.38979 5.53338 5.50312 5.54005 5.60979V5.84979C5.54672 5.96979 5.50505 6.07645 5.41505 6.16979C5.32505 6.26312 5.20338 6.31312 5.05005 6.31979C4.89672 6.31312 4.77338 6.26478 4.68005 6.17479C4.58672 6.08478 4.54005 5.98979 4.54005 5.88979L4.53005 5.50979C4.53672 5.37645 4.57505 5.25312 4.64505 5.13979C4.71505 5.02645 4.80172 4.92145 4.90505 4.82479C5.00838 4.72812 5.11838 4.63479 5.23505 4.54479C5.35172 4.45479 5.46172 4.36479 5.56505 4.27479C5.66838 4.18479 5.75338 4.09145 5.82005 3.99479C5.88672 3.89812 5.92005 3.79312 5.92005 3.67979C5.93338 3.45312 5.85005 3.26479 5.67005 3.11479C5.49005 2.96479 5.25005 2.88979 4.95005 2.88979C4.79672 2.88979 4.65838 2.92645 4.53505 2.99979C4.41172 3.07312 4.30672 3.16312 4.22005 3.26979C4.13338 3.37645 4.06505 3.48812 4.01505 3.60479C3.96505 3.72145 3.94005 3.81979 3.94005 3.89979C3.94005 4.03312 3.89005 4.13479 3.79005 4.20479C3.69005 4.27479 3.58005 4.30812 3.46005 4.30479C3.34005 4.30145 3.22838 4.25979 3.12505 4.17979C3.02172 4.09979 2.96672 3.97312 2.96005 3.79979C2.95338 3.65312 2.98338 3.47145 3.05005 3.25479C3.11672 3.03812 3.23338 2.82812 3.40005 2.62479C3.56672 2.42145 3.78505 2.24812 4.05505 2.10479C4.32505 1.96145 4.66338 1.88979 5.07005 1.88979C5.39672 1.88979 5.68172 1.93812 5.92505 2.03479C6.16838 2.13145 6.36672 2.26145 6.52005 2.42479C6.67338 2.58812 6.78338 2.78312 6.85005 3.00979C6.91672 3.23645 6.94338 3.47979 6.93005 3.73979C6.91672 3.97979 6.83672 4.19145 6.69005 4.37478C6.54338 4.55812 6.38338 4.72312 6.21005 4.86979C6.03672 5.01645 5.88005 5.14979 5.74005 5.26979Z"
    fill="#26878D" />
</svg>