<svg width="20" height="20" viewBox="0 0 20 20" fill="none" xmlns="http://www.w3.org/2000/svg">
  <rect opacity="0.01" width="20" height="20" fill="#797979" />
  <path fill-rule="evenodd" clip-rule="evenodd"
    d="M10.0974 0.46582C4.77144 0.46582 0.455444 4.78192 0.455444 10.1078C0.455444 15.4338 4.77154 19.7498 10.0974 19.7498C15.4233 19.7498 19.7394 15.4337 19.7394 10.1078C19.7394 4.78182 15.4233 0.46582 10.0974 0.46582ZM10.0974 19.3212C5.00864 19.3212 0.883944 15.1965 0.883944 10.1077C0.883944 5.01902 5.00864 0.89432 10.0974 0.89432C15.1861 0.89432 19.3108 5.01902 19.3108 10.1077C19.3108 15.1965 15.1861 19.3212 10.0974 19.3212ZM11.2528 13.0999C11.2528 11.5848 12.5078 10.3603 14.0611 10.3603C15.6147 10.3603 16.8773 11.5848 16.8773 13.0999C16.8773 14.6072 15.6147 15.8316 14.0611 15.8316C12.5078 15.8316 11.2528 14.6072 11.2528 13.0999ZM14.0308 14.8751C13.8775 15.013 13.6403 15.013 13.495 14.8751L12.3012 13.7272C12.1558 13.5819 12.1558 13.36 12.3012 13.2147C12.4465 13.0768 12.6916 13.0768 12.837 13.2147L13.7629 14.1099L15.5533 12.3881C15.6987 12.2506 15.936 12.2506 16.0813 12.3881C16.2267 12.526 16.2267 12.7554 16.0813 12.9008L14.0308 14.8751ZM11.4825 11.141L11.5285 11.1484C11.0768 11.6996 10.8088 12.396 10.8086 13.1612C10.8086 13.9032 11.069 14.5918 11.4976 15.1355H3.93694L3.92164 13.5819C3.91414 12.3268 4.90134 12.0287 4.90134 12.0287L7.63314 11.1334L8.55894 10.6436L8.55154 9.63322C8.55154 9.63322 7.86284 9.31182 7.86284 8.50072L7.76304 8.49332C7.26574 8.43202 6.84504 7.66672 6.80654 7.15412C6.77594 6.64142 7.19704 6.59552 7.19704 6.59552L7.54904 6.71022C7.49564 6.66432 7.41124 6.45772 7.41124 5.47832C7.41124 4.86592 7.57984 4.55992 7.90894 4.36852V4.36112C7.90894 4.36112 7.41124 3.20542 10.0668 3.18252C12.6225 3.20532 12.615 5.35572 12.615 5.35572L12.6072 5.57762L12.5306 6.61082C12.5538 6.60292 12.8904 6.59552 12.921 6.59552C13.2196 6.59552 13.1964 7.17692 13.1964 7.17692C13.1964 7.17692 12.837 8.43202 12.3471 8.49332L12.2325 8.50072C12.148 9.16652 11.4594 9.61792 11.4594 9.61792V10.6743L11.4825 11.141Z"
    fill="#797979" />
</svg>