<svg width="20" height="20" viewBox="0 0 20 20" fill="none" xmlns="http://www.w3.org/2000/svg">
  <path fill-rule="evenodd" clip-rule="evenodd"
    d="M0 10C0 15.5228 4.47715 20 10 20C15.5228 20 20 15.5228 20 10C20 4.47715 15.5228 0 10 0C4.47715 0 0 4.47715 0 10ZM17.7778 10C17.7778 14.2955 14.2955 17.7778 10 17.7778C5.70445 17.7778 2.22222 14.2955 2.22222 10C2.22222 5.70445 5.70445 2.22222 10 2.22222C14.2955 2.22222 17.7778 5.70445 17.7778 10ZM12.2222 15V13.3333H6.66667V11.1111H15.5556L12.2222 15ZM8.88889 6.66667V5L4.44444 8.88889H13.3333V6.66667H8.88889Z"
    fill="#26878D" />
</svg>