<svg width="12" height="12" viewBox="0 0 12 12" fill="none" xmlns="http://www.w3.org/2000/svg">
<rect opacity="0.01" width="12" height="12" fill="#26878D"/>
<path fill-rule="evenodd" clip-rule="evenodd" d="M6 0.75C3.10078 0.75 0.75 3.10078 0.75 6C0.75 8.89922 3.10078 11.25 6 11.25C8.89922 11.25 11.25 8.89922 11.25 6C11.25 3.10078 8.89922 0.75 6 0.75ZM7.81289 5.92383L4.93008 3.83789C4.86797 3.79336 4.78125 3.83672 4.78125 3.91406V4.46367C4.78125 4.5832 4.83867 4.69687 4.93594 4.76719L6.63984 6L4.93594 7.23281C4.83867 7.30312 4.78125 7.41563 4.78125 7.53633V8.08594C4.78125 8.16211 4.86797 8.20664 4.93008 8.16211L7.81289 6.07617C7.86445 6.03867 7.86445 5.96133 7.81289 5.92383ZM1.64062 6C1.64062 8.40703 3.59297 10.3594 6 10.3594C8.40703 10.3594 10.3594 8.40703 10.3594 6C10.3594 3.59297 8.40703 1.64062 6 1.64062C3.59297 1.64062 1.64062 3.59297 1.64062 6Z" fill="#26878D"/>
</svg>