<svg width="16" height="18" viewBox="0 0 16 18" fill="none" xmlns="http://www.w3.org/2000/svg">
  <path fill-rule="evenodd" clip-rule="evenodd"
    d="M11.3848 2.25H12.9102C13.5005 2.25 14 2.78025 14 3.453V14.547C14 15.2212 13.5013 15.75 12.908 15.75H3.092C2.4995 15.75 2 15.2198 2 14.547V3.453C2 2.7795 2.4995 2.25 3.08975 2.25H4.61975C4.88773 2.25004 5.13536 2.1071 5.26936 1.87503C5.40337 1.64297 5.40337 1.35703 5.26936 1.12497C5.13536 0.892899 4.88773 0.749959 4.61975 0.75H3.08975C1.64975 0.75 0.5 1.97025 0.5 3.453V14.547C0.5 16.0275 1.6505 17.25 3.092 17.25H12.908C14.3503 17.25 15.5 16.0305 15.5 14.547V3.453C15.5 1.9725 14.3503 0.75 12.9102 0.75H11.3848C11.1168 0.749959 10.8691 0.892899 10.7351 1.12497C10.6011 1.35703 10.6011 1.64297 10.7351 1.87503C10.8691 2.1071 11.1168 2.25004 11.3848 2.25ZM7.25 2.25H8.75C9.16417 2.24994 9.49989 1.91417 9.49989 1.5C9.49989 1.08583 9.16417 0.750063 8.75 0.75H7.25C6.98202 0.749959 6.73439 0.892899 6.60039 1.12497C6.46638 1.35703 6.46638 1.64297 6.60039 1.87503C6.73439 2.1071 6.98202 2.25004 7.25 2.25ZM11 6H5C4.73202 6.00004 4.48439 5.8571 4.35039 5.62503C4.21639 5.39297 4.21639 5.10703 4.35039 4.87497C4.48439 4.6429 4.73202 4.49996 5 4.5H11C11.4142 4.50006 11.7499 4.83583 11.7499 5.25C11.7499 5.66417 11.4142 5.99994 11 6ZM5 9.75H11C11.4142 9.75 11.75 9.41421 11.75 9C11.75 8.58579 11.4142 8.25 11 8.25H5C4.58579 8.25 4.25 8.58579 4.25 9C4.25 9.41421 4.58579 9.75 5 9.75ZM11 13.5H5C4.58583 13.4999 4.25011 13.1642 4.25011 12.75C4.25011 12.3358 4.58583 12.0001 5 12H11C11.4142 12.0001 11.7499 12.3358 11.7499 12.75C11.7499 13.1642 11.4142 13.4999 11 13.5Z"
    fill="#797979" />
</svg>