<svg width="28" height="28" viewBox="0 0 28 28" fill="none" xmlns="http://www.w3.org/2000/svg">
  <rect opacity="0.01" width="28" height="28" fill="black" />
  <path fill-rule="evenodd" clip-rule="evenodd"
    d="M16.1765 14.1121L16.1382 14.0902L14.8394 13.6145V10.0516C15.2468 10.109 15.5777 10.2402 15.8238 10.4371L15.8292 10.4426C16.1519 10.6941 16.3597 11.1535 16.45 11.8098L17.6421 11.6457C17.5082 10.6695 17.15 9.94766 16.573 9.49648C16.1191 9.13555 15.5367 8.91406 14.8394 8.84023V7.38281H13.6363V8.84297C12.9636 8.91406 12.4058 9.11094 11.9355 9.44453C11.2027 9.94766 10.8308 10.6805 10.8308 11.6184C10.8308 12.6656 11.3421 13.4969 12.3046 14.0191L12.3429 14.041L13.6363 14.5141V18.0797C13.2316 18.0223 12.9007 17.891 12.6546 17.6941L12.6492 17.6887C12.3265 17.4371 12.1187 16.9777 12.0285 16.3215L10.8363 16.4855C10.9703 17.4617 11.3285 18.1836 11.9054 18.6348C12.3593 18.9957 12.9417 19.2145 13.6363 19.291V20.7457H14.8394V19.2883C15.5148 19.2172 16.0753 19.0203 16.5457 18.6867C17.2785 18.1836 17.6503 17.4508 17.6503 16.5129C17.6503 15.4656 17.139 14.6344 16.1765 14.1121ZM12.8433 12.9391C12.2855 12.6273 12.0367 12.2172 12.0367 11.6184C12.0367 11.0742 12.2171 10.7105 12.6218 10.4316L12.63 10.4262C12.9007 10.2348 13.2316 10.1117 13.6363 10.0516V13.2289L12.8433 12.9391ZM15.8511 17.7051L15.8593 17.6996C16.264 17.4207 16.4445 17.057 16.4445 16.5129C16.4445 15.9141 16.1957 15.5039 15.6378 15.1922L14.8394 14.8996V18.0797C15.2468 18.0223 15.5804 17.8992 15.8511 17.7051Z"
    fill="#26878D" />
  <path fill-rule="evenodd" clip-rule="evenodd"
    d="M22.9277 5.37285C24.057 6.50215 24.9429 7.81738 25.5609 9.28027C26.2035 10.7951 26.5261 12.4057 26.5261 14.0654C26.5261 15.7252 26.2007 17.3357 25.5609 18.8506C24.9429 20.3135 24.0542 21.6287 22.9277 22.758C21.7984 23.8873 20.4832 24.7732 19.0203 25.3912C17.5082 26.0338 15.8976 26.3592 14.2378 26.3592C12.5781 26.3592 10.9675 26.0338 9.45269 25.3939C7.98979 24.776 6.67456 23.8873 5.54526 22.7607C4.41597 21.6314 3.53003 20.3162 2.91206 18.8533C2.26948 17.333 1.94409 15.7225 1.94409 14.0654C1.94409 12.4084 2.26948 10.7951 2.90933 9.28027C3.52729 7.81738 4.41597 6.50215 5.54253 5.37285C6.66909 4.24355 7.98706 3.35762 9.44995 2.73965C10.9648 2.09707 12.5753 1.77441 14.2351 1.77441C15.8949 1.77441 17.5054 2.0998 19.0203 2.73965C20.4832 3.35762 21.7984 4.24629 22.9277 5.37285ZM22.08 21.9049C23.1 20.885 23.8984 19.701 24.4562 18.3803C25.0332 17.0131 25.3285 15.5611 25.3285 14.0627C25.3285 12.5643 25.0359 11.1123 24.4562 9.74512C23.8984 8.42441 23.0972 7.2377 22.08 6.22051C21.0601 5.20059 19.8761 4.40215 18.5554 3.84434C17.1882 3.26738 15.7363 2.97207 14.2378 2.97207C12.7394 2.97207 11.2875 3.26465 9.92026 3.84434C8.59956 4.40215 7.41284 5.20332 6.39565 6.22051C5.37573 7.24043 4.57729 8.42441 4.01948 9.74512C3.44253 11.1123 3.14722 12.5643 3.14722 14.0627C3.14722 15.5611 3.4398 17.0131 4.01948 18.3803C4.57729 19.701 5.37847 20.8877 6.39565 21.9049C7.41558 22.9248 8.59956 23.7232 9.92026 24.2811C11.2875 24.858 12.7394 25.1533 14.2378 25.1533C15.7363 25.1533 17.1882 24.8607 18.5554 24.2811C19.8761 23.7232 21.0628 22.9221 22.08 21.9049Z"
    fill="#26878D" />
</svg>